<svg xmlns="http://www.w3.org/2000/svg" viewBox="0 0 512 512" width="512" height="512">
  <defs>
    <linearGradient id="grad1" x1="0%" y1="0%" x2="100%" y2="100%">
      <stop offset="0%" style="stop-color:#667eea"/>
      <stop offset="100%" style="stop-color:#764ba2"/>
    </linearGradient>
  </defs>
  
  <!-- Background -->
  <rect width="512" height="512" rx="90" fill="url(#grad1)"/>
  
  <!-- House Shape -->
  <path d="M256 100 L410 215 L410 390 Q410 410 390 410 L122 410 Q102 410 102 390 L102 215 Z" 
        fill="#ffffff"/>
  
  <!-- Door -->
  <rect x="218" y="285" width="76" height="125" rx="6" fill="#667eea"/>
  <circle cx="278" cy="352" r="7" fill="#ffd700"/>
  
  <!-- Window Left -->
  <rect x="125" y="238" width="65" height="55" rx="5" fill="#667eea"/>
  <line x1="157" y1="238" x2="157" y2="293" stroke="#fff" stroke-width="4"/>
  <line x1="125" y1="265" x2="190" y2="265" stroke="#fff" stroke-width="4"/>
  
  <!-- Window Right -->
  <rect x="322" y="238" width="65" height="55" rx="5" fill="#667eea"/>
  <line x1="354" y1="238" x2="354" y2="293" stroke="#fff" stroke-width="4"/>
  <line x1="322" y1="265" x2="387" y2="265" stroke="#fff" stroke-width="4"/>
  
  <!-- Peso Symbol -->
  <text x="256" y="195" font-family="Arial,sans-serif" font-size="65" font-weight="bold" 
        fill="#ffd700" text-anchor="middle">₱</text>
</svg>
